<svg width="18" height="18" viewBox="0 0 18 18" fill="none" xmlns="http://www.w3.org/2000/svg">
<path fill-rule="evenodd" clip-rule="evenodd" d="M8.28409 4.16403C8.32706 4.207 10.3866 8.44727 10.3866 8.44727L10.2782 8.41544C12.4838 9.15521 14.726 9.92975 15.5024 10.2727C15.5326 10.2853 16.2426 10.5855 16.7069 11.0497C17.1479 11.491 17.1557 11.8756 17.0815 12.1307C16.8017 12.9236 15.4359 12.777 14.2514 12.3755L11.6947 11.5402L6.60343 9.87702L3.1088 8.73456C3.03214 8.7096 2.97745 8.64081 2.97061 8.56104L2.59171 4.19144C2.58829 4.15485 2.59561 4.11905 2.61173 4.08774C2.62393 4.06394 2.64102 4.04273 2.66251 4.02573C2.7128 3.98642 2.7797 3.97495 2.84122 3.99515L3.12589 4.0839C3.18741 4.1041 3.23624 4.15335 3.25577 4.21555L5.09317 6.70786C5.09317 6.70786 6.16934 7.05561 7.63907 7.53922C7.63126 7.38907 7.62247 7.13111 7.61514 7.12995C7.61514 7.12995 7.496 4.11231 7.48136 3.81928C7.55118 3.85709 7.71427 3.92273 7.8754 3.98718C8.06925 4.06473 8.26065 4.14057 8.28409 4.16403Z" fill="#A0B0B9"/>
</svg>
