<svg width="16" height="8" viewBox="0 0 16 8" fill="none" xmlns="http://www.w3.org/2000/svg">
<path fill-rule="evenodd" clip-rule="evenodd" d="M14.8984 0C15.5229 0 15.8002 0.266449 15.9277 0.499512C16.2905 1.258 15.2216 2.11993 14.1 2.67355L11.7011 3.89105L6.92522 6.31509L3.64641 7.97821C3.57464 8.01468 3.48723 8.0047 3.42571 7.95328L0.0682887 5.13138C0.0189723 5.08978 -0.00641833 5.02716 0.00139417 4.96402C0.00871839 4.90088 0.0477809 4.84546 0.105886 4.81607L0.370047 4.67764C0.388113 4.66843 0.407156 4.66214 0.426687 4.65878C0.469656 4.65137 0.515066 4.65805 0.555105 4.67883L3.61663 5.14188C3.61663 5.14188 4.62346 4.62683 6.00432 3.92972C5.96721 3.89615 5.92132 3.8541 5.87639 3.81314C5.78704 3.73157 5.70208 3.65436 5.69817 3.65732C5.69817 3.65732 3.47991 1.60776 3.26262 1.41083C3.39739 1.37106 3.8012 1.1857 3.98577 1.11475C4.03069 1.0975 4.06243 1.08701 4.07415 1.08701C4.1347 1.08701 8.58977 2.62885 8.58977 2.62885L8.49456 2.68094C10.5756 1.64523 12.7065 0.608551 13.4975 0.302155C13.5278 0.289795 14.2421 0 14.8984 0Z" fill="#A0B0B9"/>
</svg>
