<svg width="17" height="20" viewBox="0 0 17 20" fill="none" xmlns="http://www.w3.org/2000/svg">
<path fill-rule="evenodd" clip-rule="evenodd" d="M3.99756 4.01139V0H4.99707V4.01139H3.99756ZM14.0068 4.97678L14.0103 3.01104L16.9956 3.01385L16.9985 20H0L0.000976562 16.0002L0.998047 15.9945L1.01123 19.0092L15.999 19.0067L16.0083 6.93908L1.0083 6.96326V15.9719L0 15.9857L0.00146484 3.01385L2.9707 3.01508L2.97656 4.97182L6.00049 4.97029L6.00684 3.00375L10.9995 3.01587V4.97678H14.0068ZM11.9941 0V4.01139H12.9937V0H11.9941ZM13.9985 15H10.9985V17H13.9985V15ZM6.99854 15H9.99854V17H6.99854V15ZM5.99854 15H2.99854V17H5.99854V15ZM10.9985 12H13.9985V14H10.9985V12ZM9.99854 12H6.99854V14H9.99854V12ZM2.99854 12H5.99854V14H2.99854V12ZM13.9985 9H10.9985V11H13.9985V9ZM6.99854 9H9.99854V11H6.99854V9ZM5.99854 9H2.99854V11H5.99854V9Z" transform="translate(0.00146484)" fill="#1BA6D2"/>
</svg>
